# AST/ASF file generated using VICON BodyLanguage
# -----------------------------------------------
:version 1.10
:name VICON
:units
  mass 1.0
  length 0.45
  angle deg
:documentation
   .ast/.asf automatically generated from VICON data using
   VICON BodyBuilder and BodyLanguage model FoxedUp or BRILLIANT.MOD
:root
   order TX TY TZ RX RY RZ
   axis XYZ
   position 0 0 0  
   orientation 0 0 0 
:bonedata
  begin
     id 1 
     name lhipjoint
     direction 0.528046 -0.759594 0.379717 
     length 2.39752 
     axis 0 0 0  XYZ
  end
  begin
     id 2 
     name lfemur
     direction 0.34202 -0.939693 0  
     length 7.31175  
     axis 0 0 20  XYZ
    dof rx ry rz
    limits (-160.0 20.0)
           (-70.0 70.0)
           (-60.0 70.0)
  end
  begin
     id 3 
     name ltibia
     direction 0.34202 -0.939693 0   
     length 7.52482   
     axis 0 0 20   XYZ
    dof rx
    limits (-10.0 170.0)
  end
  begin
     id 4 
     name lfoot
     direction 0.0675379 -0.185559 0.980309   
     length 2.00961   
     axis -90 7.62852e-016 20   XYZ
    dof rx rz
    limits (-45.0 90.0)
           (-70.0 20.0)
  end
  begin
     id 5 
     name ltoes
     direction 1.5352e-011 -4.22286e-011 1   
     length 1.01383   
     axis -90 7.62852e-016 20   XYZ
    dof rx
    limits (-90.0 20.0)
  end
  begin
     id 6 
     name rhipjoint
     direction -0.510274 -0.769251 0.384544   
     length 2.36742  
     axis 0 0 0  XYZ 
  end
  begin
     id 7 
     name rfemur
     direction -0.34202 -0.939693 0   
     length 7.45325   
     axis 0 0 -20   XYZ
    dof rx ry rz
    limits (-160.0 20.0)
           (-70.0 70.0)
           (-70.0 60.0)
  end
  begin
     id 8 
     name rtibia
     direction -0.34202 -0.939693 0   
     length 7.49587   
     axis 0 0 -20   XYZ
    dof rx
    limits (-10.0 170.0)
 end
 begin
     id 9 
     name rfoot
     direction -0.106475 -0.292536 0.950308   
     length 2.20898  
     axis -90 -7.62852e-016 -20   XYZ
    dof rx rz
    limits (-45.0 90.0)
           (-20.0 70.0)
  end
  begin
     id 10 
     name rtoes
     direction -1.53597e-011 -4.22023e-011 1   
     length 1.10065   
     axis -90 -7.62852e-016 -20   XYZ
    dof rx
    limits (-90.0 20.0)
  end
  begin
     id 11 
     name lowerback
     direction 0.0260024 0.998026 -0.0571652   
     length 2.11214   
     axis 0 0 0   XYZ
    dof rx ry rz
    limits (-20.0 45.0)
           (-30.0 30.0)
           (-30.0 30.0)
  end
  begin
     id 12 
     name upperback
     direction 0.0216202 0.999542 -0.0211766   
     length 2.11689   
     axis 0 0 0   XYZ
    dof rx ry rz
    limits (-20.0 45.0)
           (-30.0 30.0)
           (-30.0 30.0)
  end
  begin
     id 13 
     name thorax
     direction 0.00883312 0.999944 0.00589057   
     length 2.11821   
     axis 0 0 0   XYZ
    dof rx ry rz
    limits (-20.0 45.0)
           (-30.0 30.0)
           (-30.0 30.0)
  end
  begin
     id 14 
     name lowerneck
     direction -0.059386 0.994433 0.0870401   
     length 1.81176   
     axis 0 0 0   XYZ
    dof rx ry rz
    limits (-20.0 45.0)
           (-30.0 30.0)
           (-30.0 30.0)
  end
  begin
     id 15 
     name upperneck
     direction 0.0506457 0.97328 -0.223967   
     length 1.82382   
     axis 0 0 0   XYZ
    dof rx ry rz
    limits (-20.0 45.0)
           (-30.0 30.0)
           (-30.0 30.0)
  end
  begin
     id 16
     name head
     direction 0.0205902 0.996147 -0.0852487  
     length 1.84805  
     axis 0 0 0   XYZ
    dof rx ry rz
    limits (-20.0 45.0)
           (-30.0 30.0)
           (-30.0 30.0)
  end
  begin
     id 17 
     name lclavicle
     direction 0.949493 0.303881 -0.0782325  
     length 3.60584  
     axis 0 0 0   XYZ
    dof ry rz
    limits (-20.0 10.0)
           (0.0 20.0)
  end
  begin
     id 18 
     name lhumerus
     direction 1 -4.48965e-011 1.48782e-027   
     length 4.95681   
     axis 180 -30 -90   XYZ
    dof rx ry rz
    limits (-60.0 90.0)
           (-90.0 90.0)
           (-90.0 90.0)
  end
  begin
     id 19
     name lradius
     direction 1 -4.48952e-011 2.06528e-027   
     length 3.40915   
     axis 180 -30 -90   XYZ
    dof rx
    limits (-10.0 170.0)
  end
  begin
     id 20
     name lwrist
     direction 1 -4.48964e-011 1.28021e-027   
     length 1.70457   
     axis -1.61767e-015 90 90   XYZ
    dof ry
    limits (-180.0 0.0)
 end
  begin
     id 21 
     name lhand
     direction 1 -4.49094e-011 2.54887e-027   
     length 0.616403   
     axis -1.63363e-015 90 90   XYZ
    dof rx rz
    limits (-90.0 90.0)
           (-45.0 45.0)
  end
  begin
     id 22 
     name lfingers
     direction 1 -4.49002e-011 5.11407e-027   
     length 0.49696   
     axis -3.26723e-015 90 90   XYZ
    dof rx
    limits (0.0 90.0)
  end
  begin
     id 23
     name lthumb
     direction 0.707107 -6.34998e-011 0.707107   
     length 0.713539   
     axis -90 45 -2.25915e-014   XYZ
    dof rx rz
    limits (-45.0 45.0)
           (-45.0 45.0)
  end
  begin
     id 24 
     name rclavicle
     direction -0.937751 0.334612 -0.0930482   
     length 3.46287  
     axis 0 0 0   XYZ 
    dof ry rz
    limits (-10.0 20.0)
           (-20.0 0.0)
  end
  begin
     id 25 
     name rhumerus
     direction -1 -4.48962e-011 3.59972e-027  
     length 5.352   
     axis 180 30 90   XYZ
    dof rx ry rz
    limits (-90.0 60.0)
           (-90.0 90.0)
           (-90.0 90.0)
  end
  begin
     id 26 
     name rradius
     direction -1 -4.48987e-011 -3.76925e-027   
     length 3.43721   
     axis 180 30 90   XYZ
    dof rx
    limits (-10.0 170.0)
  end
  begin
     id 27 
     name rwrist
     direction -1 -4.48943e-011 1.28112e-027   
     length 1.7186   
     axis -1.61767e-015 -90 -90   XYZ
    dof ry
    limits (-180.0 0.0)
  end
  begin
     id 28
     name rhand
     direction -1 -4.49027e-011 2.55483e-027   
     length 0.72009   
     axis -1.63363e-015 -90 -90   XYZ
    dof rx rz
    limits (-90.0 90.0)
           (-45.0 45.0)
  end
  begin
     id 29
     name rfingers
     direction -1 -4.48827e-011 5.14506e-027   
     length 0.580555   
     axis -3.26723e-015 -90 -90   XYZ
    dof rx
    limits (0.0 90.0)
  end
  begin
     id 30
     name rthumb
     direction -0.707107 -6.34936e-011 0.707107   
     length 0.833564   
     axis -90 -45 2.25915e-014   XYZ
    dof rx rz
    limits (-45.0 45.0)
           (-45.0 45.0)
  end
:hierarchy
  begin
    root lhipjoint rhipjoint lowerback
    lhipjoint lfemur
    lfemur ltibia
    ltibia lfoot
    lfoot ltoes
    rhipjoint rfemur
    rfemur rtibia
    rtibia rfoot
    rfoot rtoes
    lowerback upperback
    upperback thorax
    thorax lowerneck lclavicle rclavicle
    lowerneck upperneck
    upperneck head
    lclavicle lhumerus
    lhumerus lradius
    lradius lwrist
    lwrist lhand lthumb
    lhand lfingers
    rclavicle rhumerus
    rhumerus rradius
    rradius rwrist
    rwrist rhand rthumb
    rhand rfingers
  end

#!OML:ASF H:\Terrain\Patient Classification 1\Terrain2\Thursday\justin.ASF
:FULLY-SPECIFIED
:DEGREES
679
root 19.8596 17.919 4.78317 -178.83 2.31915 -176.817
lowerback 8.45383 1.07358 1.96156
upperback 4.71191 2.09812 2.84255
thorax 0.095558 1.26624 1.65811
lowerneck -12.8703 6.08799 -8.13766
upperneck 42.1637 5.88047 0.634388
head 17.3357 -0.642363 2.19637
rclavicle -6.75868e-015 1.43125e-014
rhumerus -21.559 -3.61767 -82.2845
rradius 36.4734
rwrist -7.27203
rhand -17.8145 13.6686
rfingers 7.12502
rthumb 8.44934 -16.1423
lclavicle -6.75868e-015 1.43125e-014
lhumerus -33.359 6.87655 84.1331
lradius 52.1365
lwrist 6.78067
lhand -18.2512 23.571
lfingers 7.12502
lthumb 8.02791 53.3985
rfemur -13.8071 -6.87496 18.8297
rtibia 61.8445
rfoot -15.6845 -5.52887
rtoes -6.59672
lfemur -15.952 4.6168 -19.5239
ltibia 24.8415
lfoot -6.10194 -5.88753
ltoes 10.7945
680
root 19.8666 17.9154 4.73046 -178.779 1.84631 -176.842
lowerback 8.48622 0.975534 1.81886
upperback 4.59393 1.95284 2.89177
thorax -0.0482482 1.1858 1.79737
lowerneck -12.5997 6.05969 -8.1529
upperneck 42.0975 5.78768 0.607566
head 17.2345 -0.686022 2.16143
rclavicle 1.53064e-014 8.74653e-015
rhumerus -21.7771 -3.08267 -82.3889
rradius 36.8485
rwrist -7.74045
rhand -18.3262 13.8435
rfingers 7.12502
rthumb 7.95548 -15.9868
lclavicle 1.53064e-014 8.74653e-015
lhumerus -33.5118 7.10062 83.7629
lradius 52.3134
lwrist 7.11529
lhand -17.7887 22.2798
lfingers 7.12502
lthumb 8.47427 52.0898
rfemur -14.6288 -6.73578 18.9733
rtibia 61.4521
rfoot -16.3575 -4.68948
rtoes -8.7886
lfemur -16.0297 4.61309 -19.5567
ltibia 25.0968
lfoot -5.94032 -6.21303
ltoes 15.2631
681
root 19.8726 17.9081 4.67716 -178.688 1.38524 -177.143
lowerback 8.50524 0.931713 1.43964
upperback 4.47524 1.85101 2.8393
thorax -0.188923 1.12077 1.96146
lowerneck -12.3887 6.04727 -8.02538
upperneck 42.0251 5.71485 0.572647
head 17.1503 -0.692204 2.10586
rclavicle 6.75868e-015 2.94201e-014
rhumerus -21.9867 -2.84346 -82.4506
rradius 37.206
rwrist -7.64459
rhand -18.3736 13.4616
rfingers 7.12502
rthumb 7.90977 -16.3705
lclavicle 6.75868e-015 2.94201e-014
lhumerus -33.6253 7.1004 83.4696
lradius 52.5062
lwrist 7.73803
lhand -18.398 21.8849
lfingers 7.12502
lthumb 7.88616 51.7178
rfemur -15.5057 -6.68074 18.7528
rtibia 60.9602
rfoot -16.8608 -3.93031
rtoes -9.44037
lfemur -16.1541 4.53557 -19.9028
ltibia 25.4073
lfoot -6.0928 -6.61262
ltoes 16.19
682
root 19.8791 17.906 4.61692 -178.548 1.15308 -177.036
lowerback 8.37528 0.962034 1.53981
upperback 4.44165 1.88913 2.81587
thorax -0.149388 1.13912 1.8804
lowerneck -12.4377 6.04521 -7.8165
upperneck 42.1438 5.62936 0.620647
head 17.2403 -0.694532 2.08018
rclavicle -1.61016e-014 2.46493e-014
rhumerus -22.0247 -2.73655 -82.5866
rradius 37.433
rwrist -8.03438
rhand -18.4593 13.7015
rfingers 7.12502
rthumb 7.82701 -16.1336
lclavicle -1.61016e-014 2.46493e-014
lhumerus -33.5819 7.07046 83.1306
lradius 52.7646
lwrist 8.14912
lhand -18.8488 22.6096
lfingers 7.12502
lthumb 7.45109 52.4584
rfemur -16.4103 -6.3316 19.0037
rtibia 60.3278
rfoot -17.4927 -3.48072
rtoes -9.8875
lfemur -16.2642 4.39607 -19.7585
ltibia 25.6612
lfoot -6.47493 -6.92586
ltoes 12.491
683
root 19.8879 17.8978 4.56212 -178.43 1.06125 -176.757
lowerback 8.30712 0.981106 1.76219
upperback 4.4046 1.93019 2.86488
thorax -0.145962 1.16274 1.80389
lowerneck -12.4679 5.99962 -7.81523
upperneck 42.1542 5.54451 0.683542
head 17.2552 -0.717459 2.09674
rclavicle 3.57812e-015 2.38542e-015
rhumerus -22.0117 -2.50475 -82.6686
rradius 37.6783
rwrist -8.18988
rhand -18.4582 13.4174
rfingers 7.12502
rthumb 7.82812 -16.4177
lclavicle 3.57812e-015 2.38542e-015
lhumerus -33.5387 7.32479 82.7222
lradius 52.9181
lwrist 8.15038
lhand -18.4694 22.6956
lfingers 7.12502
lthumb 7.81729 52.5311
rfemur -17.2825 -5.58459 19.4902
rtibia 59.5929
rfoot -18.2186 -3.22966
rtoes -9.81275
lfemur -16.2689 4.34644 -19.4258
ltibia 25.8199
lfoot -6.84553 -7.00765
ltoes 8.60189
684
root 19.8966 17.8861 4.51417 -178.439 0.87655 -176.995
lowerback 8.50004 0.963998 1.44666
upperback 4.36263 1.88596 2.82266
thorax -0.30266 1.13349 1.93513
lowerneck -12.3539 5.9034 -7.8767
upperneck 41.849 5.51068 0.587263
head 17.0596 -0.713268 2.05914
rclavicle -2.24627e-014 1.59028e-014
rhumerus -22.1109 -2.1044 -82.6979
rradius 37.9536
rwrist -8.2121
rhand -18.3985 13.3715
rfingers 7.12502
rthumb 7.88572 -16.4614
lclavicle -2.24627e-014 1.59028e-014
lhumerus -33.5317 7.60458 82.3546
lradius 52.9535
lwrist 8.27082
lhand -18.6623 21.1366
lfingers 7.12502
lthumb 7.63114 50.9789
rfemur -18.0165 -4.96267 19.3514
rtibia 58.7657
rfoot -18.7846 -2.92554
rtoes -9.77501
lfemur -16.1852 4.2168 -19.6637
ltibia 26.0079
lfoot -7.10107 -7.08074
ltoes 7.98868
685
root 19.9022 17.8851 4.46235 -178.398 0.531391 -177.446
lowerback 8.60687 0.922221 0.983289
upperback 4.33482 1.78671 2.70464
thorax -0.396955 1.07353 2.07888
lowerneck -12.5245 5.81029 -7.9297
upperneck 41.8121 5.42349 0.648126
head 17.083 -0.735359 2.08964
rclavicle -2.32578e-014 -2.22639e-014
rhumerus -22.2397 -2.00304 -82.725
rradius 38.3365
rwrist -8.16556
rhand -18.349 13.7407
rfingers 7.12502
rthumb 7.9335 -16.0904
lclavicle -2.32578e-014 -2.22639e-014
lhumerus -33.6143 7.65159 82.0864
lradius 53.0236
lwrist 8.95476
lhand -17.6275 26.0707
lfingers 7.12502
lthumb 8.62979 55.8743
rfemur -18.7243 -4.77212 18.9109
rtibia 57.8046
rfoot -19.2072 -2.4581
rtoes -10.7713
lfemur -16.2257 4.09936 -20.1584
ltibia 26.235
lfoot -7.16346 -7.4544
ltoes 9.69796
686
root 19.9097 17.8812 4.40736 -178.266 0.163202 -177.452
lowerback 8.51777 0.808586 0.897032
upperback 4.37244 1.63217 2.75707
thorax -0.308017 0.996834 2.19796
lowerneck -12.98 5.79539 -8.10649
upperneck 41.9753 5.48631 0.792462
head 17.2743 -0.725012 2.21162
rclavicle 1.59028e-014 2.14687e-014
rhumerus -22.1873 -1.81192 -82.7436
rradius 38.7959
rwrist -8.29068
rhand -18.4583 13.7878
rfingers 7.12502
rthumb 7.82802 -16.0472
lclavicle 1.59028e-014 2.14687e-014
lhumerus -33.6619 7.66556 82.0192
lradius 53.5474
lwrist 9.99619
lhand -18.5448 27.801
lfingers 7.12502
lthumb 7.74454 57.6392
rfemur -19.3944 -4.48899 18.9846
rtibia 56.6772
rfoot -19.8415 -1.88882
rtoes -9.81967
lfemur -16.3533 4.04359 -20.1629
ltibia 26.4727
lfoot -7.34315 -7.7271
ltoes 10.3903
687
root 19.9261 17.875 4.35515 -178.194 -0.0878438 -177.039
lowerback 8.52983 1.33222 1.20603
upperback 4.37859 1.42467 2.99484
thorax -0.292426 0.498995 2.29083
lowerneck -13.035 5.81945 -8.18001
upperneck 41.8464 5.64971 0.691741
head 17.2095 -0.661285 2.21032
rclavicle -9.93923e-015 7.95139e-015
rhumerus -22.0864 -1.39646 -82.6914
rradius 39.0459
rwrist -8.54236
rhand -18.727 13.3521
rfingers 7.12502
rthumb 7.56862 -16.4925
lclavicle -9.93923e-015 7.95139e-015
lhumerus -33.5354 8.02646 81.7906
lradius 53.5593
lwrist 9.87013
lhand -19.338 24.8777
lfingers 7.12502
lthumb 6.97884 54.7427
rfemur -19.975 -3.53344 19.5313
rtibia 55.4192
rfoot -20.5163 -0.91499
rtoes -4.77017
lfemur -16.4246 3.9588 -19.6322
ltibia 26.7783
lfoot -7.84677 -7.69681
ltoes 9.13581
688
root 19.9431 17.871 4.30173 -178.135 -0.32143 -176.849
lowerback 8.53643 1.31923 1.2536
upperback 4.33017 1.41527 3.06013
thorax -0.346084 0.495238 2.33201
lowerneck -12.6529 5.79066 -8.04687
upperneck 41.6225 5.57152 0.56929
head 17.0025 -0.665173 2.10879
rclavicle -7.35503e-015 -1.66979e-014
rhumerus -22.1633 -1.08868 -82.7232
rradius 39.0401
rwrist -9.20616
rhand -19.0654 13.8275
rfingers 7.12502
rthumb 7.242 -16.0286
lclavicle -7.35503e-015 -1.66979e-014
lhumerus -33.56 8.22181 81.3681
lradius 53.4717
lwrist 9.43501
lhand -19.3564 22.1707
lfingers 7.12502
lthumb 6.96114 52.0362
rfemur -20.5096 -2.59784 19.7888
rtibia 54.1279
rfoot -21.1518 0.235778
rtoes -1.13655
lfemur -16.5109 3.95719 -19.3609
ltibia 27.1736
lfoot -8.46091 -7.77949
ltoes 7.56564
